<?xml version="1.0" encoding="UTF-8"?><svg id="Layer_2" xmlns="http://www.w3.org/2000/svg" viewBox="0 0 336.68 336.68"><defs><style>.cls-1,.cls-2{stroke-width:0px;}.cls-2{fill:#fff;}</style></defs><g id="Layer_1-2"><rect class="cls-1" y="0" width="336.68" height="336.68" rx="69.65" ry="69.65"/><path class="cls-2" d="M71.21,220.61c-3.27,0-6.55-1.25-9.04-3.75-4.99-4.99-4.99-13.09,0-18.09l66.17-66.17c2.4-2.4,5.65-3.75,9.04-3.75s6.64,1.35,9.04,3.75l43.86,43.86,60.03-60.03c4.99-4.99,13.09-4.99,18.09,0,4.99,4.99,4.99,13.09,0,18.09l-69.08,69.08c-2.4,2.4-5.65,3.75-9.04,3.75s-6.64-1.35-9.04-3.75l-43.86-43.86-57.13,57.13c-2.5,2.5-5.77,3.75-9.04,3.75Z"/></g></svg>