<svg id="Layer_2" xmlns="http://www.w3.org/2000/svg" version="1.1" viewBox="0 0 2299.2 336.9">
  <!-- Generator: Adobe Illustrator 29.1.0, SVG Export Plug-In . SVG Version: 2.1.0 Build 142)  -->
  <defs>
    <style>
      .st0 {
        fill: none;
      }

      .st1 {
        fill: #fff;
      }
    </style>
  </defs>
  <g id="Layer_1-2">
    <rect class="st0" width="2299.2" height="336.9" rx="70.7" ry="70.7"/>
    <rect x=".9" y=".2" width="336.7" height="336.7" rx="69.7" ry="69.7"/>
    <path class="st1" d="M72.1,220.9c-3.3,0-6.6-1.2-9-3.8-5-5-5-13.1,0-18.1l66.2-66.2c2.4-2.4,5.6-3.8,9-3.8s6.6,1.4,9,3.8l43.9,43.9,60-60c5-5,13.1-5,18.1,0,5,5,5,13.1,0,18.1l-69.1,69.1c-2.4,2.4-5.6,3.8-9,3.8s-6.6-1.4-9-3.8l-43.9-43.9-57.1,57.1c-2.5,2.5-5.8,3.8-9,3.8h0Z"/>
    <path d="M642,211.8c-1.6.3-3.3.4-4.9.4-2.3,0-4.4-.4-6.2-1.1-1.8-.7-3.2-1.9-4.1-3.7s-1.5-4.3-1.5-7.5v-60.9h23.6v-26.2h-23.6v-30.1h-34.8v30.1h-17.2v26.2h17.2v65.4c0,8.2,1.7,15.1,5.2,20.4,3.5,5.4,8.4,9.4,14.7,11.9s13.7,3.7,22,3.4c4.5-.2,8.4-.6,11.5-1.4,3.2-.7,5.6-1.4,7.4-1.9l-5.5-25.9c-.9.2-2.1.4-3.8.7h0Z"/>
    <path d="M760,119.5c-9.2-5.4-20.2-8.1-32.9-8.1s-23.7,2.7-32.9,8.1c-9.2,5.4-16.4,13-21.4,22.7s-7.5,21.1-7.5,34.1,2.5,24.2,7.5,33.9c5,9.7,12.2,17.3,21.4,22.7,9.2,5.4,20.2,8.1,32.9,8.1s23.7-2.7,32.9-8.1c9.2-5.4,16.4-13,21.4-22.7,5-9.7,7.5-21,7.5-33.9s-2.5-24.3-7.5-34.1c-5-9.7-12.2-17.3-21.4-22.7h0ZM750.6,195.6c-2,5.7-4.9,10.2-8.8,13.5-3.9,3.3-8.7,4.9-14.5,4.9s-10.7-1.6-14.7-4.9-6.9-7.8-8.9-13.5-3-12.2-3-19.6,1-13.8,3-19.6c2-5.7,5-10.2,8.9-13.6,4-3.3,8.8-5,14.7-5s10.6,1.7,14.5,5,6.8,7.9,8.8,13.6,3,12.2,3,19.6-1,13.8-3,19.6Z"/>
    <path d="M854.8,142.9c4-2.9,8.7-4.4,14.1-4.4s11.5,1.9,15.5,5.8c4,3.8,6.4,8.9,7.3,15.2h32.9c-.5-9.7-3.1-18.2-7.9-25.4s-11.3-12.8-19.5-16.8-17.8-6-28.8-6-23.7,2.7-32.9,8.2c-9.2,5.5-16.3,13.1-21.3,22.8-5,9.7-7.5,21-7.5,33.9s2.5,23.9,7.4,33.7c4.9,9.8,12,17.4,21.3,22.9,9.2,5.5,20.3,8.2,33.2,8.2s20.9-2,29-6.1c8.2-4.1,14.6-9.8,19.3-17.1,4.7-7.3,7.3-15.7,7.8-25.3h-32.9c-1,6.7-3.6,11.9-7.7,15.5-4.1,3.6-9.1,5.4-15.1,5.4s-10.1-1.5-14.2-4.4c-4-2.9-7.2-7.2-9.4-12.8-2.2-5.6-3.3-12.4-3.3-20.4s1.1-14.6,3.3-20.2c2.2-5.6,5.4-9.8,9.4-12.7h0Z"/>
    <polygon points="1064 113 1024 113 983.7 160.6 981.8 160.6 981.8 71.1 947 71.1 947 238.6 981.8 238.6 981.8 198.7 991.3 187.9 1025.5 238.6 1066.3 238.6 1017.4 167.4 1064 113"/>
    <path d="M1240.9,117c-6.5-3.8-14.1-5.7-22.8-5.7s-17.3,2.1-23.8,6.4-11.2,10.1-14,17.4h-1.5v-22.2h-33.2v125.6h34.8v-72.6c0-5.4,1.1-10,3.1-13.9,2-3.8,4.8-6.8,8.3-8.8,3.6-2,7.7-3,12.4-3,7,0,12.5,2.2,16.4,6.5,4,4.3,5.9,10.4,5.9,18v73.8h34.8v-80c0-9.8-1.8-18.2-5.4-25.2-3.6-7.1-8.6-12.5-15.1-16.3h0Z"/>
    <path d="M1387.3,177.7c-6-5.6-15.1-9.6-27.3-12.1l-22.7-4.6c-5.8-1.2-9.9-2.9-12.3-5s-3.6-4.6-3.6-7.6,1.8-6.8,5.6-9c3.7-2.3,8.3-3.4,13.7-3.4s10.8,1.4,14.4,4.3c3.5,2.9,5.8,6.3,6.6,10.4l31.9-2c-1.5-11.6-6.9-20.7-16-27.4-9.1-6.7-21.6-10.1-37.5-10.1s-20.1,1.6-28.1,4.7c-8,3.2-14.2,7.7-18.6,13.5-4.4,5.8-6.6,12.8-6.6,20.9s3,17.1,9,23.1c6,6.1,15.1,10.3,27.4,12.8l21.8,4.3c10.6,2.2,16,6.4,16.1,12.5,0,3.8-1.9,6.8-5.7,9.2s-8.7,3.6-14.8,3.6-11.3-1.3-15.3-4c-4-2.6-6.5-6.5-7.5-11.6l-34.3,1.8c1.7,12,7.5,21.5,17.3,28.4,9.8,6.9,23.1,10.4,39.7,10.4s20.5-1.7,28.9-5.2c8.4-3.5,15-8.3,19.8-14.5,4.8-6.2,7.2-13.4,7.2-21.7s-3-16.4-9-21.9h0Z"/>
    <path d="M553.9,177.7c-6-5.6-15.1-9.6-27.3-12.1l-22.7-4.6c-5.8-1.2-9.9-2.9-12.3-5s-3.6-4.6-3.6-7.6,1.8-6.8,5.6-9c3.7-2.3,8.3-3.4,13.7-3.4s10.8,1.4,14.4,4.3c3.5,2.9,5.8,6.3,6.6,10.4l31.9-2c-1.5-11.6-6.9-20.7-16-27.4-9.1-6.7-21.6-10.1-37.5-10.1s-20.1,1.6-28.1,4.7c-8,3.2-14.2,7.7-18.6,13.5-4.4,5.8-6.6,12.8-6.6,20.9s3,17.1,9,23.1c6,6.1,15.1,10.3,27.4,12.8l21.8,4.3c10.6,2.2,16,6.4,16.1,12.5,0,3.8-1.9,6.8-5.7,9.2s-8.7,3.6-14.8,3.6-11.3-1.3-15.3-4c-4-2.6-6.5-6.5-7.5-11.6l-34.3,1.8c1.7,12,7.5,21.5,17.3,28.4,9.8,6.9,23.1,10.4,39.7,10.4s20.5-1.7,28.9-5.2c8.4-3.5,15-8.3,19.8-14.5,4.8-6.2,7.2-13.4,7.2-21.7s-3-16.4-9-21.9h0Z"/>
    <path d="M1435.8,61.5c-5.1,0-9.5,1.7-13.2,5.2-3.7,3.5-5.6,7.6-5.6,12.5s1.8,9,5.6,12.4c3.7,3.4,8.2,5.2,13.3,5.2s9.6-1.7,13.3-5.2,5.5-7.6,5.5-12.5-1.8-9-5.5-12.4-8.1-5.2-13.4-5.2Z"/>
    <path d="M2010.9,203.3c-5.1,0-9.5,1.7-13.2,5.2-3.7,3.5-5.6,7.6-5.6,12.5s1.8,9,5.6,12.4c3.7,3.4,8.2,5.2,13.3,5.2s9.6-1.7,13.3-5.2,5.5-7.6,5.5-12.5-1.8-9-5.5-12.4-8.1-5.2-13.4-5.2Z"/>
    <rect x="1418.3" y="113" width="34.8" height="125.7"/>
    <path d="M1099.8,61.5c-5.1,0-9.5,1.7-13.2,5.2-3.7,3.5-5.6,7.6-5.6,12.5s1.8,9,5.6,12.4c3.7,3.4,8.2,5.2,13.3,5.2s9.6-1.7,13.3-5.2,5.5-7.6,5.5-12.5-1.8-9-5.5-12.4-8.1-5.2-13.4-5.2Z"/>
    <rect x="1082.3" y="113" width="34.8" height="125.7"/>
    <path d="M2217.4,61.5c-5.1,0-9.5,1.7-13.2,5.2-3.7,3.5-5.6,7.6-5.6,12.5s1.8,9,5.6,12.4c3.7,3.4,8.2,5.2,13.3,5.2s9.6-1.7,13.3-5.2,5.5-7.6,5.5-12.5-1.8-9-5.5-12.4-8.1-5.2-13.4-5.2Z"/>
    <rect x="2199.9" y="113" width="34.8" height="125.7"/>
    <path d="M1564.4,134.1h-1.3c-1.6-3.4-3.8-6.8-6.8-10.3s-6.8-6.5-11.5-8.8c-4.8-2.4-10.6-3.6-17.7-3.6s-17.7,2.4-25.4,7.1c-7.7,4.7-13.9,11.9-18.5,21.4s-6.9,21.4-6.9,35.7,2.3,25.4,6.8,34.5c4.6,9.1,10.7,15.8,18.4,20.2,7.7,4.4,16.3,6.6,25.7,6.6s12.4-1,17.2-2.9,8.7-4.5,11.8-7.6c3.1-3.1,5.3-6.4,6.9-9.9h1.5v23c0,8.6-2.5,14.8-7.4,18.4s-11.2,5.5-18.8,5.5-9.4-.7-12.9-2c-3.5-1.3-6.3-3.1-8.5-5.3s-3.7-4.5-4.7-7l-32.2,4.3c2.1,9.9,7.9,18.2,17.6,24.9s22.9,10.1,39.8,10.1,22.6-1.8,31.9-5.4,16.5-9,21.7-16.2c5.2-7.2,7.8-16.1,7.8-26.8v-126.9h-34.6v21.1h0ZM1557.8,201.3c-4.6,6.2-11.1,9.3-19.5,9.3s-10.5-1.4-14.4-4.3c-3.9-2.9-6.9-6.9-8.9-12.2-2-5.3-3.1-11.5-3.1-18.8s1-13.4,3-18.9c2-5.4,5-9.7,8.9-12.8s8.8-4.6,14.5-4.6,10.4,1.5,14.3,4.5c3.9,3,6.9,7.2,9,12.6s3.1,11.8,3.1,19.2c0,11.1-2.3,19.7-6.9,25.9h0Z"/>
    <path d="M1722.5,117c-6.5-3.8-14.1-5.7-22.9-5.7s-17.5,2.1-23.8,6.3c-6.3,4.2-10.9,10.1-13.7,17.5h-1.5v-64.1h-33.9v167.5h34.8v-72.6c0-5.4,1.1-10,3.2-13.9s4.9-6.8,8.5-8.8c3.6-2,7.8-3,12.6-3,7.1,0,12.6,2.1,16.6,6.5,3.9,4.3,5.9,10.3,5.8,18.1v73.8h34.8v-80c0-9.8-1.7-18.2-5.4-25.3-3.6-7.1-8.7-12.5-15.2-16.3h0Z"/>
    <path d="M1830.5,211.8c-1.6.3-3.3.4-4.9.4-2.3,0-4.4-.4-6.2-1.1-1.8-.7-3.2-1.9-4.1-3.7s-1.5-4.3-1.5-7.5v-60.9h23.6v-26.2h-23.6v-30.1h-34.8v30.1h-17.2v26.2h17.2v65.4c0,8.2,1.7,15.1,5.2,20.4s8.4,9.4,14.7,11.9,13.7,3.7,22.1,3.4c4.5-.2,8.4-.6,11.5-1.4s5.6-1.4,7.4-1.9l-5.5-25.9c-.9.2-2.1.4-3.8.7h0Z"/>
    <path d="M1956.8,177.7c-6-5.6-15.1-9.6-27.3-12.1l-22.7-4.6c-5.8-1.2-9.9-2.9-12.3-5s-3.6-4.6-3.6-7.6,1.8-6.8,5.6-9c3.7-2.3,8.3-3.4,13.7-3.4s10.8,1.4,14.4,4.3c3.5,2.9,5.8,6.3,6.6,10.4l31.9-2c-1.5-11.6-6.9-20.7-16-27.4-9.1-6.7-21.6-10.1-37.5-10.1s-20.1,1.6-28.1,4.7c-8,3.2-14.2,7.7-18.6,13.5-4.4,5.8-6.6,12.8-6.6,20.9s3,17.1,9,23.1c6,6.1,15.1,10.3,27.4,12.8l21.8,4.3c10.6,2.2,16,6.4,16.1,12.5,0,3.8-1.9,6.8-5.7,9.2s-8.7,3.6-14.8,3.6-11.3-1.3-15.3-4c-4-2.6-6.5-6.5-7.5-11.6l-34.3,1.8c1.7,12,7.5,21.5,17.3,28.4,9.8,6.9,23.1,10.4,39.7,10.4s20.5-1.7,28.9-5.2c8.4-3.5,15-8.3,19.8-14.5s7.2-13.4,7.2-21.7-3-16.4-9-21.9h0Z"/>
    <path d="M2099.1,241.7c-8,0-15.1-1.4-21.4-4.2-6.3-2.8-11.2-7-14.8-12.5-3.6-5.5-5.4-12.4-5.4-20.7s1.3-12.8,3.8-17.6c2.6-4.7,6-8.5,10.5-11.4,4.4-2.9,9.4-5.1,15.1-6.5,5.6-1.5,11.6-2.5,17.8-3.1,7.3-.8,13.2-1.5,17.6-2.2,4.5-.7,7.7-1.7,9.7-3.1,2-1.4,3-3.4,3-6v-.5c0-5.2-1.6-9.2-4.9-12-3.2-2.8-7.8-4.2-13.8-4.2s-11.2,1.4-14.9,4.1c-3.7,2.8-6.2,6.2-7.4,10.3l-32.2-2.6c1.6-7.6,4.8-14.2,9.6-19.8,4.8-5.6,11-9.9,18.6-12.9s16.4-4.5,26.4-4.5,13.7.8,20.1,2.5c6.4,1.6,12.1,4.2,17.1,7.6,5,3.4,8.9,7.8,11.8,13.2,2.9,5.4,4.3,11.8,4.3,19.2v84.6h-33v-17.4h-1c-2,3.9-4.7,7.4-8.1,10.3-3.4,3-7.4,5.3-12.2,6.9s-10.2,2.5-16.4,2.5ZM2109.1,217.7c5.1,0,9.6-1,13.6-3.1,3.9-2,7-4.8,9.2-8.3,2.2-3.5,3.3-7.4,3.3-11.8v-13.3c-1.1.7-2.6,1.3-4.5,1.9-1.9.6-4,1.1-6.3,1.6-2.3.5-4.7.9-7,1.2-2.3.4-4.5.7-6.4.9-4.1.6-7.7,1.6-10.7,2.9-3,1.3-5.4,3.1-7.1,5.3-1.7,2.2-2.5,4.9-2.5,8.2,0,4.7,1.7,8.3,5.2,10.8,3.5,2.5,7.9,3.7,13.2,3.7Z"/>
  </g>
</svg>