<?xml version="1.0" encoding="UTF-8"?><svg id="Layer_2" xmlns="http://www.w3.org/2000/svg" viewBox="0 0 2145.54 336.94"><defs><style>.cls-1{fill:none;}.cls-1,.cls-2{stroke-width:0px;}.cls-2{fill:#fff;}</style></defs><g id="Layer_1-2"><rect class="cls-1" x="0" width="2145.54" height="336.91" rx="70.69" ry="70.69"/><path class="cls-2" d="M267.94.25H70.56C32.1.25.91,31.44.91,69.91v197.37c0,38.47,31.19,69.65,69.65,69.65h197.38c38.47,0,69.65-31.19,69.65-69.65V69.91C337.59,31.44,306.41.25,267.94.25ZM269.32,134.77l-69.08,69.08c-2.4,2.4-5.65,3.75-9.04,3.75s-6.65-1.35-9.04-3.75l-43.86-43.86-57.13,57.13c-2.5,2.5-5.77,3.75-9.04,3.75s-6.55-1.25-9.04-3.75c-4.99-4.99-4.99-13.09,0-18.09l66.17-66.17c2.4-2.4,5.65-3.75,9.04-3.75s6.64,1.35,9.04,3.75l43.86,43.86,60.03-60.03c4.99-4.99,13.09-4.99,18.09,0,4.99,4.99,4.99,13.09,0,18.09Z"/><path class="cls-2" d="M594.87,158.64c-4.47-3.98-9.76-7.33-15.87-10.06-6.11-2.73-12.82-4.91-20.12-6.54l-15.05-3.6c-4.85-1.15-9.3-2.56-13.33-4.25-4.04-1.69-7.27-3.86-9.69-6.5-2.43-2.64-3.59-5.98-3.48-10.02,0-3.6,1.05-6.82,3.15-9.65,2.1-2.83,5.14-5.06,9.12-6.67,3.98-1.61,8.86-2.41,14.64-2.41,8.51,0,15.24,1.83,20.21,5.48,4.96,3.65,7.77,8.78,8.43,15.38h33.95c-.16-9.98-2.84-18.76-8.02-26.34-5.18-7.58-12.42-13.5-21.72-17.75-9.3-4.25-20.16-6.38-32.6-6.38s-23.12,2.13-32.72,6.38c-9.6,4.25-17.14,10.17-22.62,17.75-5.48,7.58-8.19,16.44-8.14,26.59-.06,12.38,4.01,22.22,12.19,29.53,8.18,7.31,19.33,12.68,33.46,16.11l18.24,4.58c6.11,1.47,11.27,3.11,15.5,4.91,4.23,1.8,7.44,3.98,9.65,6.54,2.21,2.56,3.31,5.73,3.31,9.49,0,4.04-1.23,7.61-3.68,10.72s-5.9,5.54-10.35,7.28c-4.45,1.75-9.67,2.62-15.67,2.62s-11.58-.94-16.4-2.82-8.67-4.69-11.53-8.43c-2.86-3.73-4.49-8.41-4.87-14.03h-34.27c.27,12.05,3.2,22.16,8.79,30.31,5.59,8.15,13.39,14.3,23.4,18.45,10.01,4.14,21.77,6.22,35.3,6.22s25.29-2.06,34.97-6.18c9.68-4.12,17.1-9.92,22.25-17.42,5.15-7.5,7.76-16.37,7.81-26.63-.06-6.98-1.32-13.17-3.8-18.57-2.48-5.4-5.96-10.09-10.43-14.07Z"/><path class="cls-2" d="M692.05,212.34c-1.64.3-3.27.45-4.91.45-2.35,0-4.4-.35-6.18-1.06-1.77-.71-3.15-1.95-4.13-3.72-.98-1.77-1.47-4.27-1.47-7.48v-60.86h23.64v-26.18h-23.64v-30.1h-34.85v30.1h-17.18v26.18h17.18v65.44c-.06,8.23,1.66,15.05,5.15,20.45,3.49,5.4,8.38,9.38,14.68,11.94,6.3,2.56,13.65,3.68,22.05,3.35,4.53-.16,8.37-.61,11.53-1.35,3.16-.74,5.62-1.38,7.36-1.92l-5.48-25.93c-.87.16-2.13.4-3.76.7Z"/><path class="cls-2" d="M810.05,119.99c-9.24-5.43-20.22-8.14-32.93-8.14s-23.68,2.71-32.93,8.14c-9.24,5.43-16.37,13.01-21.39,22.74-5.02,9.73-7.53,21.09-7.53,34.07s2.51,24.17,7.53,33.91c5.02,9.73,12.15,17.32,21.39,22.74,9.24,5.43,20.22,8.14,32.93,8.14s23.68-2.71,32.93-8.14c9.24-5.43,16.37-13.01,21.39-22.74,5.02-9.73,7.53-21.04,7.53-33.91s-2.51-24.34-7.53-34.07c-5.02-9.73-12.15-17.31-21.39-22.74ZM800.56,196.1c-1.99,5.73-4.92,10.24-8.79,13.54-3.87,3.3-8.7,4.95-14.48,4.95s-10.73-1.65-14.68-4.95c-3.95-3.3-6.93-7.81-8.92-13.54-1.99-5.73-2.99-12.24-2.99-19.55s.99-13.82,2.99-19.55c1.99-5.73,4.96-10.25,8.92-13.58,3.95-3.33,8.85-4.99,14.68-4.99s10.61,1.66,14.48,4.99c3.87,3.33,6.8,7.85,8.79,13.58,1.99,5.73,2.99,12.24,2.99,19.55s-1,13.82-2.99,19.55Z"/><path class="cls-2" d="M904.77,143.38c4.01-2.92,8.71-4.38,14.11-4.38,6.38,0,11.55,1.92,15.5,5.77,3.95,3.84,6.39,8.9,7.32,15.17h32.88c-.49-9.71-3.14-18.16-7.94-25.36-4.8-7.2-11.32-12.79-19.55-16.77-8.23-3.98-17.83-5.97-28.79-5.97-12.71,0-23.67,2.74-32.88,8.22-9.22,5.48-16.32,13.09-21.31,22.82-4.99,9.73-7.48,21.04-7.48,33.91s2.47,23.94,7.4,33.7c4.94,9.76,12.02,17.38,21.27,22.86,9.24,5.48,20.3,8.22,33.17,8.22,11.18,0,20.86-2.04,29.04-6.14,8.18-4.09,14.6-9.78,19.26-17.06,4.66-7.28,7.27-15.72,7.81-25.32h-32.88c-1.04,6.71-3.6,11.88-7.69,15.5-4.09,3.63-9.13,5.44-15.13,5.44-5.4,0-10.12-1.47-14.15-4.42-4.04-2.94-7.16-7.23-9.37-12.84-2.21-5.62-3.31-12.43-3.31-20.45s1.12-14.64,3.35-20.21c2.24-5.56,5.36-9.8,9.37-12.72Z"/><polygon class="cls-2" points="1113.98 113.48 1073.98 113.48 1033.73 161.17 1031.85 161.17 1031.85 71.6 997.01 71.6 997.01 239.13 1031.85 239.13 1031.85 199.24 1041.3 188.45 1075.54 239.13 1116.35 239.13 1067.38 167.91 1113.98 113.48"/><rect class="cls-2" x="1131.65" y="71.6" width="35.42" height="167.53"/><path class="cls-2" d="M1290.92,117.57c-6.49-3.82-14.1-5.73-22.82-5.73-9.33,0-17.26,2.14-23.8,6.42-6.54,4.28-11.21,10.08-13.99,17.38h-1.47v-22.17h-33.21v125.65h34.85v-72.64c.05-5.4,1.08-10.02,3.07-13.87,1.99-3.84,4.77-6.78,8.34-8.79,3.57-2.02,7.7-3.03,12.39-3.03,6.98,0,12.46,2.17,16.44,6.5,3.98,4.34,5.94,10.35,5.89,18.04v73.79h34.85v-80c0-9.76-1.8-18.17-5.4-25.24-3.6-7.06-8.64-12.5-15.13-16.32Z"/><path class="cls-2" d="M1437.26,178.27c-6-5.56-15.11-9.6-27.32-12.11l-22.74-4.58c-5.84-1.25-9.95-2.92-12.35-4.99-2.4-2.07-3.6-4.61-3.6-7.61,0-3.76,1.85-6.78,5.56-9.04,3.71-2.26,8.26-3.4,13.66-3.4,6.05,0,10.85,1.43,14.4,4.29,3.54,2.86,5.75,6.34,6.63,10.43l31.9-1.96c-1.53-11.56-6.86-20.7-15.99-27.4-9.13-6.71-21.64-10.06-37.51-10.06-10.74,0-20.11,1.58-28.1,4.74-7.99,3.16-14.18,7.66-18.57,13.5-4.39,5.84-6.58,12.79-6.58,20.86,0,9.38,2.99,17.1,8.96,23.15,5.97,6.05,15.09,10.31,27.36,12.76l21.76,4.34c10.63,2.18,16,6.35,16.11,12.52-.05,3.76-1.95,6.83-5.69,9.2-3.74,2.37-8.66,3.56-14.77,3.56s-11.32-1.32-15.3-3.97c-3.98-2.64-6.49-6.5-7.53-11.57l-34.27,1.8c1.69,12,7.46,21.47,17.3,28.43,9.84,6.95,23.08,10.43,39.71,10.43,10.91,0,20.54-1.73,28.92-5.19,8.37-3.46,14.97-8.3,19.8-14.52,4.83-6.22,7.24-13.44,7.24-21.68,0-9.05-3-16.36-9-21.92Z"/><rect class="cls-2" x="1468.27" y="113.48" width="34.85" height="125.65"/><path class="cls-2" d="M1485.77,62.03c-5.13,0-9.54,1.73-13.25,5.19-3.71,3.46-5.56,7.62-5.56,12.47s1.85,9,5.56,12.43c3.71,3.44,8.15,5.15,13.33,5.15s9.61-1.73,13.29-5.19c3.68-3.46,5.52-7.62,5.52-12.47s-1.84-9-5.52-12.43-8.14-5.15-13.37-5.15Z"/><path class="cls-2" d="M1614.36,134.59h-1.31c-1.58-3.38-3.83-6.83-6.75-10.35-2.92-3.52-6.75-6.46-11.49-8.83-4.75-2.37-10.63-3.56-17.67-3.56-9.22,0-17.68,2.37-25.4,7.12-7.72,4.74-13.89,11.89-18.53,21.43-4.64,9.54-6.95,21.43-6.95,35.67s2.28,25.4,6.83,34.48c4.55,9.08,10.69,15.82,18.41,20.21,7.72,4.39,16.29,6.58,25.73,6.58,6.65,0,12.38-.98,17.18-2.94,4.8-1.96,8.72-4.5,11.78-7.61,3.05-3.11,5.34-6.41,6.87-9.9h1.47v22.99c0,8.62-2.47,14.77-7.4,18.45s-11.19,5.52-18.77,5.52c-5.07,0-9.37-.67-12.88-2-3.52-1.34-6.34-3.1-8.47-5.28-2.13-2.18-3.68-4.53-4.66-7.04l-32.23,4.34c2.07,9.92,7.94,18.24,17.59,24.95,9.65,6.71,22.93,10.06,39.84,10.06,12,0,22.62-1.81,31.86-5.44,9.24-3.63,16.48-9.04,21.72-16.24,5.24-7.2,7.85-16.14,7.85-26.83v-126.87h-34.6v21.1ZM1607.78,201.83c-4.61,6.22-11.11,9.33-19.51,9.33-5.73,0-10.54-1.43-14.44-4.29-3.9-2.86-6.87-6.92-8.92-12.19-2.04-5.26-3.07-11.52-3.07-18.77s1.01-13.44,3.03-18.9c2.02-5.45,4.99-9.72,8.92-12.8,3.93-3.08,8.75-4.62,14.48-4.62s10.39,1.5,14.32,4.5c3.93,3,6.93,7.21,9,12.64,2.07,5.43,3.11,11.82,3.11,19.18,0,11.07-2.3,19.71-6.91,25.93Z"/><path class="cls-2" d="M1772.53,117.53c-6.52-3.79-14.14-5.69-22.86-5.69-9.54,0-17.48,2.11-23.8,6.34-6.33,4.23-10.91,10.05-13.74,17.46h-1.47v-64.05h-33.87v167.53h34.85v-72.64c.05-5.4,1.1-10.02,3.15-13.87s4.88-6.78,8.51-8.79c3.63-2.02,7.81-3.03,12.56-3.03,7.09,0,12.61,2.15,16.56,6.46,3.95,4.31,5.9,10.33,5.85,18.08v73.79h34.85v-80c.05-9.82-1.73-18.25-5.36-25.32-3.63-7.06-8.7-12.49-15.22-16.28Z"/><path class="cls-2" d="M1880.46,212.34c-1.64.3-3.27.45-4.91.45-2.35,0-4.4-.35-6.18-1.06-1.77-.71-3.15-1.95-4.13-3.72-.98-1.77-1.47-4.27-1.47-7.48v-60.86h23.64v-26.18h-23.64v-30.1h-34.85v30.1h-17.18v26.18h17.18v65.44c-.05,8.23,1.66,15.05,5.15,20.45,3.49,5.4,8.38,9.38,14.68,11.94,6.3,2.56,13.65,3.68,22.05,3.35,4.53-.16,8.37-.61,11.53-1.35,3.16-.74,5.62-1.38,7.36-1.92l-5.48-25.93c-.87.16-2.13.4-3.76.7Z"/><path class="cls-2" d="M2006.77,178.27c-6-5.56-15.11-9.6-27.32-12.11l-22.74-4.58c-5.84-1.25-9.95-2.92-12.35-4.99-2.4-2.07-3.6-4.61-3.6-7.61,0-3.76,1.85-6.78,5.56-9.04,3.71-2.26,8.26-3.4,13.66-3.4,6.05,0,10.85,1.43,14.4,4.29,3.54,2.86,5.75,6.34,6.63,10.43l31.9-1.96c-1.53-11.56-6.86-20.7-15.99-27.4-9.14-6.71-21.64-10.06-37.51-10.06-10.74,0-20.11,1.58-28.1,4.74-7.99,3.16-14.18,7.66-18.57,13.5-4.39,5.84-6.58,12.79-6.58,20.86,0,9.38,2.99,17.1,8.96,23.15,5.97,6.05,15.09,10.31,27.36,12.76l21.76,4.34c10.63,2.18,16.01,6.35,16.12,12.52-.05,3.76-1.95,6.83-5.69,9.2-3.74,2.37-8.66,3.56-14.76,3.56s-11.32-1.32-15.3-3.97c-3.98-2.64-6.49-6.5-7.53-11.57l-34.27,1.8c1.69,12,7.46,21.47,17.3,28.43,9.84,6.95,23.08,10.43,39.71,10.43,10.91,0,20.54-1.73,28.92-5.19,8.37-3.46,14.97-8.3,19.8-14.52s7.24-13.44,7.24-21.68c0-9.05-3-16.36-9-21.92Z"/></g></svg>